<?xml version="1.0" encoding="utf-8"?>
<!-- Generator: Adobe Illustrator 15.1.0, SVG Export Plug-In  -->
<!DOCTYPE svg PUBLIC "-//W3C//DTD SVG 1.1//EN" "http://www.w3.org/Graphics/SVG/1.1/DTD/svg11.dtd" [
	<!ENTITY ns_flows "http://ns.adobe.com/Flows/1.0/">
]>
<svg version="1.1"
	 xmlns="http://www.w3.org/2000/svg" xmlns:xlink="http://www.w3.org/1999/xlink" xmlns:a="http://ns.adobe.com/AdobeSVGViewerExtensions/3.0/"
	 x="0px" y="0px" width="600px" height="560px" viewBox="0 -0.457 600 560" enable-background="new 0 -0.457 600 560"
	 xml:space="preserve">
<defs>
</defs>
<path fill="#74C4EF" d="M299.528,559.085c-121.983,0-234.457-50.965-212.671-129.088
	c52.039-186.601,126.485-234.589,212.671-234.589s160.632,47.988,212.671,234.589C533.985,508.12,421.512,559.085,299.528,559.085z"
	/>
<ellipse fill="#74C4EF" cx="73.419" cy="199.712" rx="73.419" ry="93.121"/>
<ellipse fill="#74C4EF" cx="213.303" cy="93.122" rx="73.419" ry="93.121"/>
<ellipse fill="#74C4EF" cx="386.291" cy="93.122" rx="73.419" ry="93.121"/>
<ellipse fill="#74C4EF" cx="526.581" cy="199.712" rx="73.419" ry="93.121"/>
<polyline fill="#1F1B18" points="315.191,305.063 315.191,424.923 415.223,482.677 399.56,509.806 315.191,461.095 315.191,554.161 
	283.865,554.161 283.865,461.095 199.497,509.806 183.834,482.677 283.865,424.923 283.865,305.063 180.064,364.991 
	180.063,480.499 148.737,480.499 148.737,383.079 68.14,429.61 52.477,402.481 133.074,355.948 48.706,307.239 64.369,280.111 
	164.401,337.862 268.202,277.934 164.401,218.004 64.369,275.757 48.706,248.627 133.074,199.918 52.477,153.385 68.14,126.255 
	148.737,172.788 148.737,75.368 180.063,75.368 180.064,190.874 283.865,250.804 283.865,130.945 183.834,73.191 199.497,46.062 
	283.865,94.772 283.865,1.705 315.191,1.705 315.191,94.772 399.56,46.062 415.223,73.191 315.191,130.945 315.191,250.804 
	418.992,190.874 418.992,75.368 450.319,75.367 450.318,172.788 530.916,126.255 546.579,153.384 465.981,199.917 550.351,248.626 
	534.687,275.756 434.655,218.003 330.854,277.933 434.655,337.862 534.687,280.109 550.35,307.237 465.981,355.948 546.58,402.481 
	530.916,429.61 450.318,383.077 450.319,480.497 418.992,480.497 418.991,364.991 315.19,305.062 "/>
</svg>
